Coordinates
version=1
nRows=13
nColumns=36
inDegrees=yes

Units are S.I. units (second, meters, Newtons, ...)
If the header above contains a line with 'inDegrees', this indicates whether rotational values are in degrees (yes) or radians (no).

endheader
time	pelvis_tilt	pelvis_list	pelvis_rotation	pelvis_tx	pelvis_ty	pelvis_tz	hip_flexion_r	hip_adduction_r	hip_rotation_r	knee_angle_r	knee_angle_r_beta	ankle_angle_r	subtalar_angle_r	mtp_angle_r	hip_flexion_l	hip_adduction_l	hip_rotation_l	knee_angle_l	knee_angle_l_beta	ankle_angle_l	subtalar_angle_l	mtp_angle_l	lumbar_extension	lumbar_bending	lumbar_rotation	arm_flex_r	arm_add_r	arm_rot_r	elbow_flex_r	pro_sup_r	arm_flex_l	arm_add_l	arm_rot_l	elbow_flex_l	pro_sup_l
      8.10000000	    -30.20175164	      2.78514840	     -9.65758333	      1.06670831	      0.72302710	     -0.37124553	     67.37192261	    -14.25952857	    -11.83772763	     68.04393836	      1.18759076	     29.24421803	     -7.17572362	     -7.49999987	     69.43075804	    -24.96010636	     -6.94355899	     67.18769111	      1.17264643	     27.45832748	      2.14738749	     -7.49999987	    -16.52799895	      2.46006334	     10.12746910	     80.39083157	    -10.56692065	     69.36136129	    140.39003692	    109.16723765	     77.10106627	      3.42806345	     66.20039504	    118.54469882	    108.61809455
      8.11666670	    -29.10323543	      3.13937359	     -9.72846372	      1.07580494	      0.73238307	     -0.37037094	     64.68380332	    -14.43302462	    -12.02321397	     65.70415655	      1.14675386	     28.49248296	     -7.08125097	     -7.49999987	     65.83129884	    -24.49084766	     -8.57477856	     64.42685149	      1.12446069	     27.05137389	      3.03189578	     -7.49999987	    -15.41817386	      2.07478824	      9.34965679	     79.04922491	     -8.68079709	     70.35541790	    141.26697877	    109.30403464	     75.28659616	      2.66277684	     65.24634988	    119.12685450	    108.47491942
      8.13333330	    -28.21424070	      3.42526507	     -9.77759223	      1.07592558	      0.74416254	     -0.36901013	     62.34994574	    -14.57280184	    -12.25355605	     63.59170318	      1.10988460	     27.90072825	     -6.88152170	     -7.49999987	     62.82101059	    -24.10435638	    -10.02989153	     62.02852023	      1.08260191	     26.57880295	      3.86772915	     -7.49999987	    -14.78740443	      1.86277758	      9.10087826	     78.61209789	     -8.65406515	     68.70487404	    139.44625318	    109.05709489	     74.41508826	      2.24869541	     65.39391386	    118.24560718	    108.32563830
      8.15000000	    -27.30366320	      3.82447081	     -9.76379140	      1.07570576	      0.75628467	     -0.37051072	     60.20893843	    -14.91876831	    -12.46758486	     61.62871402	      1.07562397	     27.23146513	     -6.67326984	     -7.49999987	     60.02278355	    -23.55017116	    -11.50249767	     59.77065927	      1.04319480	     25.90244910	      4.44431474	     -7.49999987	    -14.27820490	      1.37583327	      8.56979106	     78.19745748	     -7.71052980	     66.87241822	    138.83714268	    109.53656825	     74.49311507	      2.45901684	     65.02407695	    119.05444795	    108.68420926
      8.16666670	    -26.34905760	      4.05075182	     -9.76019387	      1.07638258	      0.77299859	     -0.36962452	     57.60660773	    -15.13557396	    -13.09522103	     58.97641336	      1.02933259	     26.06345360	     -6.53274543	     -7.49999987	     56.99065819	    -22.99292298	    -12.95799237	     56.97227499	      0.99435378	     24.97505981	      5.05148973	     -7.49999987	    -14.32009166	      1.04052742	      8.22370987	     78.16363528	     -7.38903764	     65.88077021	    137.95299864	    108.75737104	     74.15122844	      1.42200862	     64.34621393	    117.80129529	    108.50237128
      8.18333330	    -25.26168668	      4.22162805	     -9.74877496	      1.07634304	      0.78700304	     -0.36872254	     54.79804598	    -15.29294348	    -13.81393392	     56.13791223	      0.97979140	     24.95808310	     -6.21049777	     -7.49999987	     53.82188966	    -22.40055988	    -14.41346592	     54.01276914	      0.94270066	     23.77358040	      5.66709108	     -7.49999987	    -14.55801432	      0.72169872	      8.25086243	     78.38298075	     -7.61473856	     64.78997076	    137.10370036	    108.32007906	     74.52094911	      1.32398697	     64.18933796	    116.79352545	    108.43437415
      8.20000000	    -24.09973994	      4.35408936	     -9.74010497	      1.08316999	      0.79619757	     -0.37134834	     51.86017554	    -15.46093451	    -14.64053718	     53.26464208	      0.92964338	     23.87726607	     -5.81194467	     -7.49999987	     50.62577196	    -21.70737542	    -15.73824382	     51.12042111	      0.89221966	     22.59085169	      6.21004293	     -7.49999987	    -14.50949667	      0.46880673	      7.75579622	     78.13322965	     -6.67362123	     63.60195793	    137.03148236	    108.21900550	     74.64816993	      1.78065463	     63.32679329	    116.94492889	    108.31040787
      8.21666670	    -23.23435157	      4.52210449	     -9.68599565	      1.08292496	      0.80049685	     -0.37118294	     49.68177676	    -15.63446878	    -15.21878433	     51.07293506	      0.89139088	     23.13646714	     -5.38618315	     -7.49999987	     48.20871184	    -21.08477207	    -16.87022832	     48.91934562	      0.85380365	     21.97384512	      6.90903158	     -7.49999987	    -14.09406407	      0.16563344	      7.29552912	     79.03172811	     -5.99930440	     60.28243209	    136.65107930	    105.88317158	     75.08787279	      0.69496407	     60.13469733	    115.30288894	    106.08224531
      8.23333330	    -22.25804227	      4.68854545	     -9.58459932	      1.08410557	      0.81270058	     -0.37085633	     47.13143915	    -15.80029855	    -15.96181285	     48.40315912	      0.84479449	     22.30285888	     -4.91976991	     -7.49999987	     45.63824208	    -20.27447253	    -17.85107786	     46.38502373	      0.80957139	     21.14344254	      7.36998060	     -7.49999987	    -14.00873599	     -0.09296697	      6.83074120	     79.22531162	     -5.56945524	     60.48885879	    137.06069004	    103.61334163	     74.87770959	      0.62812414	     59.22509343	    116.78447564	    103.63489141
      8.25000000	    -21.37529428	      4.85817854	     -9.50099679	      1.08460985	      0.82719404	     -0.37090823	     44.63054052	    -15.92601041	    -16.74315425	     45.60111281	      0.79588956	     21.11180584	     -4.36626859	     -7.49999987	     42.96606368	    -19.36852208	    -18.85643183	     43.44751347	      0.75830216	     19.99550965	      7.83658041	     -7.49999987	    -14.15133223	     -0.38841066	      6.51225835	     78.74473576	     -6.22995777	     60.85545242	    135.76332403	    106.58121151	     75.24290487	      1.04646562	     60.51518562	    116.38873797	    106.53453760
      8.26666670	    -20.16670522	      4.84672447	     -9.42082704	      1.08978625	      0.83983527	     -0.36665429	     41.33655398	    -15.78925128	    -17.76896973	     42.20173124	      0.73655916	     19.82437069	     -3.70555055	     -7.49999987	     39.66219457	    -18.41177428	    -19.63985020	     39.96170646	      0.69746335	     18.55422623	      8.28642450	     -7.49999987	    -14.47808782	     -0.57473459	      6.39010312	     78.32715678	     -6.48070551	     60.72849516	    134.68423408	    106.30196948	     75.12524147	      0.39723261	     61.66774585	    114.95793558	    106.46754837
      8.28333330	    -19.21186907	      4.85620596	     -9.38994421	      1.09011170	      0.84958003	     -0.36655407	     38.57542483	    -15.58009654	    -18.55238369	     39.13670353	      0.68306434	     18.51626284	     -3.12072266	     -7.49999987	     36.74517954	    -17.55341571	    -20.36840575	     36.60933204	      0.63895338	     17.21932738	      8.94284588	     -7.49999987	    -14.62089490	     -0.92010250	      6.10158545	     78.30218584	     -6.30330091	     59.94792843	    135.69590966	    105.96446482	     74.94175607	     -0.62310163	     60.72977595	    114.65194022	    106.17693568
      8.30000000	    -18.49427240	      4.80760948	     -9.31008779	      1.09081113	      0.85076324	     -0.36633068	     36.48512194	    -15.30932707	    -19.13384426	     36.85971480	      0.64332338	     17.63471078	     -2.57656975	     -7.49999987	     34.62683861	    -16.85653135	    -20.61889472	     34.16646448	      0.59631730	     16.39082912	      9.25109239	     -7.49999987	    -14.40935783	     -1.03896130	      5.58138933	     78.73566048	     -5.83539085	     58.35953403	    135.18321482	    102.50754174	     75.06141922	     -1.11635397	     59.20949935	    113.84393722	    102.67317270
